<svg width="376" height="773" viewBox="0 0 376 773" fill="none" xmlns="http://www.w3.org/2000/svg">
<path d="M256.503 673.506C180.734 742.426 80.7716 777.222 -25.6569 771.653L-25.6195 766.875C190.936 778.208 368.353 616.83 369.997 407.023C370.793 305.504 330.657 207.618 257.252 132.087C183.644 56.3456 85.3324 11.7713 -19.4524 6.28797L-19.415 1.51059C86.8096 6.87018 186.348 52.3051 260.976 129.095C335.603 205.885 376.144 304.589 375.336 407.701C374.123 509.995 332.273 604.587 256.503 673.506Z" stroke="url(#paint0_linear_272_32)" stroke-opacity="0.6"/>
<path d="M237.132 653.574C169.644 714.962 76.6644 750.522 -25.4479 744.979L-25.4105 740.202C175.941 750.738 341.143 600.471 342.672 405.394C344.201 210.318 181.489 42.8905 -19.8624 32.3538L-19.8249 27.5764C184.403 38.2636 349.154 207.789 347.603 405.652C347.033 504.595 304.621 592.187 237.132 653.574Z" stroke="url(#paint1_linear_272_32)" stroke-opacity="0.6"/>
<path d="M217.966 633.852C152.755 693.169 66.1896 723.289 -25.4457 718.494L-25.4083 713.716C64.9943 718.447 149.912 688.639 214.089 630.264C278.472 571.701 314.25 491.329 314.73 403.932C315.416 316.347 280.72 232.486 217.511 167.445C154.098 102.194 69.5095 63.7151 -20.6892 59.1942L-20.6518 54.4168C70.9836 59.2121 156.802 98.1539 221.234 164.454C285.463 230.543 320.558 316.018 319.862 404.798C319.583 492.803 283.178 574.536 217.966 633.852Z" stroke="url(#paint2_linear_272_32)" stroke-opacity="0.6"/>
<path d="M198.799 614.13C141.248 666.479 62.0824 696.589 -24.8289 692.24L-24.7914 687.462C146.563 696.429 286.719 568.548 288.017 402.932C289.318 236.919 150.867 94.8564 -20.0765 85.9109L-20.0391 81.1336C153.987 90.0413 294.475 234.6 293.152 403.4C292.289 487.193 256.351 561.782 198.799 614.13Z" stroke="url(#paint3_linear_272_32)" stroke-opacity="0.6"/>
<path d="M179.633 594.408C127.05 642.238 54.688 669.716 -24.8268 665.754L-24.7893 660.977C131.361 669.148 259.299 552.775 260.485 401.492C261.671 250.208 135.661 120.546 -20.4893 112.375L-20.4519 107.597C138.574 115.919 266.828 247.889 265.62 401.959C265.021 478.398 232.216 546.579 179.633 594.408Z" stroke="url(#paint4_linear_272_32)" stroke-opacity="0.6"/>
<path d="M160.262 574.476C112.648 617.787 47.2934 642.844 -24.6178 639.08L-24.5803 634.303C116.366 641.679 232.09 536.416 233.16 399.863C233.678 333.776 207.662 270.084 159.542 220.569C111.625 171.264 47.5174 142.22 -20.6954 138.65L-20.658 133.873C49.1986 137.529 114.329 167.223 163.265 217.577C212.201 267.931 238.826 332.651 238.295 400.33C237.752 469.602 207.877 531.166 160.262 574.476Z" stroke="url(#paint5_linear_272_32)" stroke-opacity="0.6"/>
<path d="M141.096 554.754C98.4493 593.545 39.8989 615.971 -24.4087 612.407L-24.3713 607.63C101.578 614.021 204.674 520.245 205.836 398.234C206.587 276.201 105.044 171.716 -20.9014 164.926L-20.8639 160.149C107.754 166.879 211.951 273.694 210.767 398.492C210.277 460.996 183.742 515.963 141.096 554.754Z" stroke="url(#paint6_linear_272_32)" stroke-opacity="0.6"/>
<defs>
<linearGradient id="paint0_linear_272_32" x1="192.829" y1="437.995" x2="418.887" y2="279.418" gradientUnits="userSpaceOnUse">
<stop stop-color="#FFC01F"/>
<stop offset="1" stop-color="#E1E4EB" stop-opacity="0.47"/>
</linearGradient>
<linearGradient id="paint1_linear_272_32" x1="192.829" y1="437.995" x2="418.887" y2="279.418" gradientUnits="userSpaceOnUse">
<stop stop-color="#FFC01F"/>
<stop offset="1" stop-color="#E1E4EB" stop-opacity="0.47"/>
</linearGradient>
<linearGradient id="paint2_linear_272_32" x1="192.829" y1="437.995" x2="418.887" y2="279.418" gradientUnits="userSpaceOnUse">
<stop stop-color="#FFC01F"/>
<stop offset="1" stop-color="#E1E4EB" stop-opacity="0.47"/>
</linearGradient>
<linearGradient id="paint3_linear_272_32" x1="192.829" y1="437.995" x2="418.887" y2="279.418" gradientUnits="userSpaceOnUse">
<stop stop-color="#FFC01F"/>
<stop offset="1" stop-color="#E1E4EB" stop-opacity="0.47"/>
</linearGradient>
<linearGradient id="paint4_linear_272_32" x1="192.829" y1="437.995" x2="418.887" y2="279.418" gradientUnits="userSpaceOnUse">
<stop stop-color="#FFC01F"/>
<stop offset="1" stop-color="#E1E4EB" stop-opacity="0.47"/>
</linearGradient>
<linearGradient id="paint5_linear_272_32" x1="192.829" y1="437.995" x2="418.887" y2="279.418" gradientUnits="userSpaceOnUse">
<stop stop-color="#FFC01F"/>
<stop offset="1" stop-color="#E1E4EB" stop-opacity="0.47"/>
</linearGradient>
<linearGradient id="paint6_linear_272_32" x1="192.829" y1="437.995" x2="418.887" y2="279.418" gradientUnits="userSpaceOnUse">
<stop stop-color="#FFC01F"/>
<stop offset="1" stop-color="#E1E4EB" stop-opacity="0.47"/>
</linearGradient>
</defs>
</svg>
